<svg width="17" height="14" viewBox="0 0 17 14" xmlns="http://www.w3.org/2000/svg"><path d="M16.301 1.578a7.133 7.133 0 0 1-1.669 1.725v.426a9.56 9.56 0 0 1-.39 2.69 9.842 9.842 0 0 1-1.186 2.577 9.446 9.446 0 0 1-1.91 2.17c-.742.618-1.632 1.125-2.67 1.52-1.04.396-2.158.58-3.357.557-1.867 0-3.574-.5-5.119-1.502.235.037.5.055.797.055 1.558 0 2.943-.476 4.155-1.43a3.38 3.38 0 0 1-1.948-.665 3.263 3.263 0 0 1-1.187-1.652c.235.026.446.038.631.038.297 0 .593-.038.89-.11a3.32 3.32 0 0 1-1.929-1.15C.903 6.22.65 5.51.65 4.693v-.038c.47.26.977.402 1.52.427a3.472 3.472 0 0 1-1.093-1.187 3.23 3.23 0 0 1-.408-1.613c0-.594.154-1.15.463-1.67A9.655 9.655 0 0 0 4.173 3.08 9.128 9.128 0 0 0 8.03 4.1a3.277 3.277 0 0 1-.093-.76c0-.928.328-1.713.983-2.356A3.32 3.32 0 0 1 11.276 0c.976 0 1.792.354 2.448 1.059a6.513 6.513 0 0 0 2.114-.816c-.247.79-.736 1.41-1.465 1.854a6.995 6.995 0 0 0 1.928-.52" fill="#DCDCDC" fill-rule="evenodd"/></svg>