<svg xmlns="http://www.w3.org/2000/svg" width="16" height="16" viewBox="0 0 16 16">
    <path d="M6 0v1.5c1.148 0 2.261.225 3.308.667 1.012.428 1.921 1.041 2.702 1.822s1.394 1.69 1.822 2.702c.443 1.047.667 2.16.667 3.308h1.5c0-5.523-4.477-10-10-10z"/>
    <path d="M6 3v1.5c1.469 0 2.85.572 3.889 1.611S11.5 8.531 11.5 10H13c0-3.866-3.134-7-7-7zM7.5 6l-1 1L3 8l-3 6.5.396.396 3.638-3.638c-.022-.083-.034-.169-.034-.259 0-.552.448-1 1-1s1 .448 1 1-.448 1-1 1c-.09 0-.176-.012-.259-.034l-3.638 3.638.396.396 6.5-3 1-3.5 1-1-2.5-2.5z"/>
</svg>
