<svg xmlns="http://www.w3.org/2000/svg" width="16" height="16" viewBox="0 0 16 16">
    <path d="M14.5 0h-13C.675 0 0 .675 0 1.5v13c0 .825.675 1.5 1.5 1.5h13c.825 0 1.5-.675 1.5-1.5v-13c0-.825-.675-1.5-1.5-1.5zM11 2.5c0-.275.225-.5.5-.5h2c.275 0 .5.225.5.5v2c0 .275-.225.5-.5.5h-2c-.275 0-.5-.225-.5-.5v-2zM8 5c1.656 0 3 1.344 3 3s-1.344 3-3 3-3-1.344-3-3 1.344-3 3-3zm6 8.5c0 .275-.225.5-.5.5h-11c-.275 0-.5-.225-.5-.5V7h1.1c-.066.322-.1.656-.1 1 0 2.762 2.237 5 5 5s5-2.238 5-5c0-.344-.034-.678-.1-1H14v6.5z"/>
</svg>
